<svg xmlns="http://www.w3.org/2000/svg" viewBox="0 0 720 720" role="img" aria-label="Cartoon turmeric roots">
  <defs>
    <linearGradient id="turmeric" x1="0" x2="1" y1="0" y2="1">
      <stop offset="0" stop-color="#ffd15a"/>
      <stop offset=".58" stop-color="#e18118"/>
      <stop offset="1" stop-color="#93400f"/>
    </linearGradient>
    <linearGradient id="leaf" x1="0" x2="1" y1="0" y2="1">
      <stop offset="0" stop-color="#9bd272"/>
      <stop offset="1" stop-color="#2f7a3d"/>
    </linearGradient>
  </defs>
  <ellipse cx="365" cy="586" rx="204" ry="36" fill="#000" opacity=".18"/>
  <path d="M282 231c11-79 91-121 155-74-65 22-105 68-121 137Z" fill="url(#leaf)"/>
  <path d="M377 257c37-83 130-97 181-39-78 8-132 42-165 101Z" fill="url(#leaf)"/>
  <g stroke="#7a310c" stroke-width="8" stroke-linejoin="round">
    <path d="M224 430c-5-57 45-106 108-91 30 7 50 26 61 51 36-24 89-17 116 20 24 34 18 81-14 108-34 29-84 25-116-7-32 39-91 50-132 19-30-23-38-62-23-100Z" fill="url(#turmeric)"/>
    <path d="M369 381c5-47 47-82 94-73 42 8 70 45 66 84-40-11-79-6-116 18Z" fill="url(#turmeric)"/>
    <path d="M186 426c-44-11-73-48-66-86 7-40 50-64 91-48 23 9 37 29 44 51-34 12-57 39-69 83Z" fill="url(#turmeric)"/>
  </g>
  <g fill="none" stroke="#ffe08c" stroke-width="9" stroke-linecap="round" opacity=".58">
    <path d="M240 438c55-24 114-20 166 13"/>
    <path d="M394 384c35-13 70-11 104 8"/>
    <path d="M172 331c25-5 46 1 65 18"/>
  </g>
</svg>
